<svg height="700pt" preserveAspectRatio="xMidYMid meet" viewBox="0 0 700 700" width="700pt"
    xmlns="http://www.w3.org/2000/svg">
    <path d="m995 6122c-39-5-81-36-102-75-16-30-17-195-18-2397-2-2362-2-2365 19-2403 11-21 35-47 54-59l33-21 2364 1c1719 0 2373 3 2398 11 40 14 74 56 84 108 5 21 8 1094 8 2384l-1 2345-23 37c-13 21-37 45-54 54-30 16-191 17-2382 18-1292 0-2363-2-2380-3zm4329-293c3-2-931-939-2075-2083-1839-1838-2079-2075-2080-2050 0 16-1 951-2 2077-2 1564 1 2050 10 2055 12 7 4140 8 4147 1zm216-2289v-2080h-2082-2083l2080 2080c1144 1144 2081 2080 2082 2080 2 0 3-936 3-2080z" transform="matrix(.1 0 0 -.1 0 700)"/>
</svg>
